# AST/ASF file generated using VICON BodyLanguage
# -----------------------------------------------
:version 1.10
:name VICON
:units
  mass 1.0
  length 0.45
  angle deg
:documentation
   .ast/.asf automatically generated from VICON data using
   VICON BodyBuilder and BodyLanguage model FoxedUp or BRILLIANT.MOD
:root
   order TX TY TZ RX RY RZ
   axis XYZ
   position 0 0 0  
   orientation 0 0 0 
:bonedata
  begin
     id 1 
     name lhipjoint
     direction 0.54267 -0.795011 0.271047 
     length 2.39899 
     axis 0 0 0  XYZ
  end
  begin
     id 2 
     name lfemur
     direction 0.34202 -0.939693 0  
     length 7.49701  
     axis 0 0 20  XYZ
    dof rx ry rz
    limits (-160.0 20.0)
           (-70.0 70.0)
           (-60.0 70.0)
  end
  begin
     id 3 
     name ltibia
     direction 0.34202 -0.939693 0   
     length 8.1668   
     axis 0 0 20   XYZ
    dof rx
    limits (-10.0 170.0)
  end
  begin
     id 4 
     name lfoot
     direction 0.0736283 -0.202292 0.976554   
     length 2.13544   
     axis -90 7.62852e-016 20   XYZ
    dof rx rz
    limits (-45.0 90.0)
           (-70.0 20.0)
  end
  begin
     id 5 
     name ltoes
     direction 1.53557e-011 -4.22024e-011 1   
     length 1.07411   
     axis -90 7.62852e-016 20   XYZ
    dof rx
    limits (-90.0 20.0)
  end
  begin
     id 6 
     name rhipjoint
     direction -0.538061 -0.797813 0.272002   
     length 2.39057  
     axis 0 0 0  XYZ 
  end
  begin
     id 7 
     name rfemur
     direction -0.34202 -0.939693 0   
     length 7.50152   
     axis 0 0 -20   XYZ
    dof rx ry rz
    limits (-160.0 20.0)
           (-70.0 70.0)
           (-70.0 60.0)
  end
  begin
     id 8 
     name rtibia
     direction -0.34202 -0.939693 0   
     length 8.05793   
     axis 0 0 -20   XYZ
    dof rx
    limits (-10.0 170.0)
 end
 begin
     id 9 
     name rfoot
     direction -0.0765195 -0.210236 0.974652   
     length 2.28698  
     axis -90 -7.62852e-016 -20   XYZ
    dof rx rz
    limits (-45.0 90.0)
           (-20.0 70.0)
  end
  begin
     id 10 
     name rtoes
     direction -1.53542e-011 -4.21847e-011 1   
     length 1.14762   
     axis -90 -7.62852e-016 -20   XYZ
    dof rx
    limits (-90.0 20.0)
  end
  begin
     id 11 
     name lowerback
     direction -0.0217239 0.996592 -0.0795765   
     length 2.08176   
     axis 0 0 0   XYZ
    dof rx ry rz
    limits (-20.0 45.0)
           (-30.0 30.0)
           (-30.0 30.0)
  end
  begin
     id 12 
     name upperback
     direction -0.00563773 0.999651 -0.0258155   
     length 2.08898   
     axis 0 0 0   XYZ
    dof rx ry rz
    limits (-20.0 45.0)
           (-30.0 30.0)
           (-30.0 30.0)
  end
  begin
     id 13 
     name thorax
     direction 0.0032706 0.999923 0.0119599   
     length 2.0968   
     axis 0 0 0   XYZ
    dof rx ry rz
    limits (-20.0 45.0)
           (-30.0 30.0)
           (-30.0 30.0)
  end
  begin
     id 14 
     name lowerneck
     direction -0.0285886 0.99568 0.0883427   
     length 1.81272   
     axis 0 0 0   XYZ
    dof rx ry rz
    limits (-20.0 45.0)
           (-30.0 30.0)
           (-30.0 30.0)
  end
  begin
     id 15 
     name upperneck
     direction 0.0807535 0.97985 -0.18268   
     length 1.82518   
     axis 0 0 0   XYZ
    dof rx ry rz
    limits (-20.0 45.0)
           (-30.0 30.0)
           (-30.0 30.0)
  end
  begin
     id 16
     name head
     direction 0.0236605 0.997053 -0.0729767  
     length 1.84443  
     axis 0 0 0   XYZ
    dof rx ry rz
    limits (-20.0 45.0)
           (-30.0 30.0)
           (-30.0 30.0)
  end
  begin
     id 17 
     name lclavicle
     direction 0.918986 0.39378 -0.0200683  
     length 3.27822  
     axis 0 0 0   XYZ
    dof ry rz
    limits (-20.0 10.0)
           (0.0 20.0)
  end
  begin
     id 18 
     name lhumerus
     direction 1 -4.4897e-011 2.09544e-027   
     length 5.5568   
     axis 180 -30 -90   XYZ
    dof rx ry rz
    limits (-60.0 90.0)
           (-90.0 90.0)
           (-90.0 90.0)
  end
  begin
     id 19
     name lradius
     direction 1 -4.48957e-011 -1.27696e-026   
     length 3.63979   
     axis 180 -30 -90   XYZ
    dof rx
    limits (-10.0 170.0)
  end
  begin
     id 20
     name lwrist
     direction 1 -4.49001e-011 -1.49001e-026   
     length 1.8199   
     axis 9.0955e-015 90 90   XYZ
    dof ry
    limits (-180.0 0.0)
 end
  begin
     id 21 
     name lhand
     direction 1 -4.48709e-011 -2.9758e-026   
     length 0.569419   
     axis 1.90115e-014 90 90   XYZ
    dof rx rz
    limits (-90.0 90.0)
           (-45.0 45.0)
  end
  begin
     id 22 
     name lfingers
     direction 1 -4.49175e-011 -5.96505e-026   
     length 0.45908   
     axis 3.80223e-014 90 90   XYZ
    dof rx
    limits (0.0 90.0)
  end
  begin
     id 23
     name lthumb
     direction 0.707107 -6.34864e-011 0.707107   
     length 0.65915   
     axis -90 45 -3.84942e-014   XYZ
    dof rx rz
    limits (-45.0 45.0)
           (-45.0 45.0)
  end
  begin
     id 24 
     name rclavicle
     direction -0.911913 0.396426 -0.106115   
     length 3.46301  
     axis 0 0 0   XYZ 
    dof ry rz
    limits (-10.0 20.0)
           (-20.0 0.0)
  end
  begin
     id 25 
     name rhumerus
     direction -1 -4.48965e-011 7.78516e-028  
     length 5.34339   
     axis 180 30 90   XYZ
    dof rx ry rz
    limits (-90.0 60.0)
           (-90.0 90.0)
           (-90.0 90.0)
  end
  begin
     id 26 
     name rradius
     direction -1 -4.48948e-011 -5.79823e-027   
     length 3.65101   
     axis 180 30 90   XYZ
    dof rx
    limits (-10.0 170.0)
  end
  begin
     id 27 
     name rwrist
     direction -1 -4.48995e-011 -1.48996e-026   
     length 1.8255   
     axis 9.0955e-015 -90 -90   XYZ
    dof ry
    limits (-180.0 0.0)
  end
  begin
     id 28
     name rhand
     direction -1 -4.48957e-011 -2.97937e-026   
     length 0.694249   
     axis 1.90115e-014 -90 -90   XYZ
    dof rx rz
    limits (-90.0 90.0)
           (-45.0 45.0)
  end
  begin
     id 29
     name rfingers
     direction -1 -4.4898e-011 -5.95943e-026   
     length 0.559721   
     axis 3.80223e-014 -90 -90   XYZ
    dof rx
    limits (0.0 90.0)
  end
  begin
     id 30
     name rthumb
     direction -0.707107 -6.34969e-011 0.707107   
     length 0.803651   
     axis -90 -45 3.84942e-014   XYZ
    dof rx rz
    limits (-45.0 45.0)
           (-45.0 45.0)
  end
:hierarchy
  begin
    root lhipjoint rhipjoint lowerback
    lhipjoint lfemur
    lfemur ltibia
    ltibia lfoot
    lfoot ltoes
    rhipjoint rfemur
    rfemur rtibia
    rtibia rfoot
    rfoot rtoes
    lowerback upperback
    upperback thorax
    thorax lowerneck lclavicle rclavicle
    lowerneck upperneck
    upperneck head
    lclavicle lhumerus
    lhumerus lradius
    lradius lwrist
    lwrist lhand lthumb
    lhand lfingers
    rclavicle rhumerus
    rhumerus rradius
    rradius rwrist
    rwrist rhand rthumb
    rhand rfingers
  end

#!OML:ASF H:\Terrain\Walking\May29\JustinRory\rory.ASF
:FULLY-SPECIFIED
:DEGREES
272
root 13.3688 17.7702 -13.3872 -5.35219 -16.8601 5.80711
lowerback 1.9263 -1.92135 -8.34294
upperback 0.564702 -2.72671 -0.80273
thorax -0.146659 -1.37369 3.88678
lowerneck -9.96217 -10.1677 -10.0426
upperneck 14.4772 -14.3233 11.5479
head 7.66381 -6.56874 3.86416
rclavicle -2.94139e-015 1.35174e-014
rhumerus -44.9039 -22.9045 -60.5098
rradius 20.3195
rwrist 13.0785
rhand -24.7377 31.5069
rfingers 7.12502
rthumb 1.7649 1.53442
lclavicle -2.94139e-015 1.35174e-014
lhumerus -33.6336 13.7852 76.7454
lradius 27.6408
lwrist 11.0644
lhand -27.3186 23.6197
lfingers 7.12502
lthumb -0.727841 53.5982
rfemur -26.7724 13.6672 11.6871
rtibia 30.1005
rfoot 0.84705 4.98172
rtoes 15.2404
lfemur 7.26967 -7.76659 -24.8612
ltibia 32.2365
lfoot 4.00677 -21.6454
ltoes 27.9549
273
root 13.4322 17.7613 -13.529 -5.42343 -17.5076 6.07707
lowerback 2.1167 -1.98821 -8.74746
upperback 1.06066 -2.8168 -0.90967
thorax 0.288091 -1.45237 3.9962
lowerneck -11.1566 -10.4549 -9.99003
upperneck 14.4112 -14.7284 12.0831
head 7.94234 -6.66686 3.91699
rclavicle -7.93236e-015 1.97791e-014
rhumerus -43.7354 -21.8607 -62.047
rradius 21.0821
rwrist 12.123
rhand -25.0732 31.0573
rfingers 7.12502
rthumb 1.44084 1.08244
lclavicle -7.93236e-015 1.97791e-014
lhumerus -32.7721 13.7062 77.0703
lradius 28.3325
lwrist 10.7861
lhand -27.155 24.2049
lfingers 7.12502
lthumb -0.569773 54.1839
rfemur -27.4715 13.7774 11.2671
rtibia 29.8022
rfoot 1.85507 5.62145
rtoes 15.5389
lfemur 7.56721 -7.55883 -25.5158
ltibia 30.9593
lfoot 1.08638 -21.1694
ltoes 27.3717
274
root 13.4992 17.7511 -13.6806 -5.62843 -18.1343 6.44241
lowerback 2.67988 -2.07529 -9.15772
upperback 1.71228 -2.96621 -1.0547
thorax 0.68481 -1.56701 4.08027
lowerneck -13.2392 -10.7662 -9.79992
upperneck 14.4571 -15.1193 12.5217
head 8.39887 -6.71159 3.87543
rclavicle 5.38303e-014 2.21148e-015
rhumerus -42.0693 -21.0253 -63.7366
rradius 21.7723
rwrist 11.1502
rhand -24.5903 30.2333
rfingers 7.12502
rthumb 1.90724 0.262073
lclavicle 5.38303e-014 2.21148e-015
lhumerus -30.9632 13.6339 77.6023
lradius 28.2163
lwrist 10.3644
lhand -27.8839 24.5996
lfingers 7.12502
lthumb -1.27373 54.5756
rfemur -28.0104 13.9905 10.7351
rtibia 29.2197
rfoot 2.80055 6.2998
rtoes 15.3161
lfemur 7.87704 -7.07606 -26.2327
ltibia 29.7742
lfoot -1.23893 -20.5969
ltoes 28.0437
275
root 13.5681 17.7399 -13.8391 -5.76311 -18.8572 6.51365
lowerback 3.10595 -1.83595 -9.32154
upperback 1.10161 -2.74 -1.37152
thorax -0.230109 -1.39512 3.87506
lowerneck -9.32382 -10.6603 -9.90326
upperneck 12.7441 -15.2544 13.5561
head 7.2615 -6.93116 4.40512
rclavicle -4.37981e-015 -7.95139e-015
rhumerus -44.0671 -20.0373 -64.0917
rradius 22.9209
rwrist 9.74782
rhand -23.8247 30.2293
rfingers 7.12502
rthumb 2.64662 0.265984
lclavicle -4.37981e-015 -7.95139e-015
lhumerus -32.0974 11.1391 77.5586
lradius 28.5651
lwrist 10.6571
lhand -28.7241 24.575
lfingers 7.12502
lthumb -2.08524 54.5445
rfemur -28.532 14.3155 10.5086
rtibia 28.4302
rfoot 4.44376 6.73232
rtoes 17.1618
lfemur 8.29255 -6.29197 -26.6111
ltibia 28.6475
lfoot -4.19761 -20.0392
ltoes 24.6096
276
root 13.6377 17.7351 -14.0008 -5.88609 -19.7621 6.437
lowerback 3.61309 -2.00159 -9.48845
upperback 1.41245 -3.00409 -1.23118
thorax -0.137842 -1.54236 4.13143
lowerneck -9.90154 -10.6162 -10.5146
upperneck 12.6631 -15.1701 14.2561
head 7.43671 -6.8456 4.70927
rclavicle 3.58379e-014 -8.44835e-016
rhumerus -43.0365 -18.6096 -65.3554
rradius 23.6319
rwrist 8.41695
rhand -23.5908 30.159
rfingers 7.12502
rthumb 2.87256 0.198615
lclavicle 3.58379e-014 -8.44835e-016
lhumerus -31.4125 11.5708 77.6363
lradius 28.6174
lwrist 10.1192
lhand -29.2513 25.2182
lfingers 7.12502
lthumb -2.59438 55.1821
rfemur -28.9384 14.5045 10.5777
rtibia 27.5365
rfoot 6.58608 7.32341
rtoes 17.1752
lfemur 8.66386 -5.53406 -26.8218
ltibia 27.5422
lfoot -7.20026 -18.7349
ltoes 18.8523
277
root 13.711 17.7225 -14.1602 -6.04602 -20.7252 6.41724
lowerback 3.88036 -1.96986 -9.6169
upperback 1.85378 -2.97164 -1.28908
thorax 0.172267 -1.55591 4.14112
lowerneck -10.4154 -10.7105 -10.6991
upperneck 12.4741 -15.3723 15.1383
head 7.58899 -6.8699 4.97263
rclavicle 5.67344e-014 7.55382e-015
rhumerus -42.2732 -18.3614 -66.1871
rradius 24.234
rwrist 7.91024
rhand -23.2439 29.8334
rfingers 7.12502
rthumb 3.20759 -0.122263
lclavicle 5.67344e-014 7.55382e-015
lhumerus -30.3274 11.7035 77.7692
lradius 28.5633
lwrist 9.34918
lhand -28.8353 26.5281
lfingers 7.12502
lthumb -2.19262 56.4965
rfemur -29.0513 14.3817 10.7636
rtibia 26.5358
rfoot 8.22553 8.87118
rtoes 10.8936
lfemur 8.90656 -4.94266 -27.0896
ltibia 26.4967
lfoot -8.93594 -17.2872
ltoes 17.1305
278
root 13.7856 17.7168 -14.3185 -6.26584 -21.6768 6.76896
lowerback 4.26294 -1.63172 -9.92952
upperback 2.12736 -2.56687 -1.64847
thorax 0.184038 -1.36544 3.94011
lowerneck -10.5664 -10.9853 -10.2171
upperneck 12.0983 -15.8972 15.7776
head 7.58906 -7.05959 5.02205
rclavicle -4.40619e-014 -9.93923e-016
rhumerus -42.2949 -19.6894 -66.2405
rradius 24.7141
rwrist 8.22755
rhand -22.6202 30.0308
rfingers 7.12502
rthumb 3.80986 0.085091
lclavicle -4.40619e-014 -9.93923e-016
lhumerus -29.2072 10.8587 78.0079
lradius 28.4389
lwrist 8.37606
lhand -28.0368 24.3829
lfingers 7.12502
lthumb -1.42146 54.3579
rfemur -29.2095 14.3141 10.4891
rtibia 25.4097
rfoot 10.221 9.60644
rtoes 9.28291
lfemur 9.01829 -4.47889 -27.7428
ltibia 25.4956
lfoot -10.2043 -16.1864
ltoes 16.1404
279
root 13.8593 17.7263 -14.4793 -6.54539 -22.6948 7.31687
lowerback 4.83147 -1.82816 -10.6606
upperback 2.09377 -2.93384 -1.62585
thorax -0.0755338 -1.54133 4.40218
lowerneck -10.6975 -10.7214 -10.6944
upperneck 12.2589 -15.5078 16.0101
head 7.6701 -6.86891 5.2256
rclavicle 1.52257e-014 -1.5704e-014
rhumerus -41.6459 -18.7316 -66.7505
rradius 24.9556
rwrist 8.25296
rhand -22.2277 30.5122
rfingers 7.12502
rthumb 4.18887 0.573666
lclavicle 1.52257e-014 -1.5704e-014
lhumerus -29.1639 11.612 77.9444
lradius 28.3767
lwrist 7.74726
lhand -27.6823 27.9105
lfingers 7.12502
lthumb -1.07912 57.8875
rfemur -29.5185 14.4378 9.93312
rtibia 24.1408
rfoot 13.342 8.16474
rtoes 16.8845
lfemur 9.05644 -4.08055 -28.5527
ltibia 24.5219
lfoot -11.6981 -14.9579
ltoes 12.6782
280
root 13.9371 17.7396 -14.6358 -6.78519 -23.7135 7.83068
lowerback 5.18908 -1.78768 -11.1623
upperback 2.2863 -2.94227 -1.84094
thorax -0.0559423 -1.55744 4.46497
lowerneck -11.1664 -10.7954 -10.7287
upperneck 12.172 -15.6712 16.5845
head 7.80769 -6.88784 5.37441
rclavicle -7.44076e-014 5.36719e-015
rhumerus -40.9285 -18.8434 -67.3576
rradius 24.9702
rwrist 8.43004
rhand -22.2454 30.823
rfingers 7.12502
rthumb 4.17176 0.884062
lclavicle -7.44076e-014 5.36719e-015
lhumerus -28.3411 11.0203 77.9904
lradius 27.9545
lwrist 7.91181
lhand -28.0511 26.2847
lfingers 7.12502
lthumb -1.43523 56.2596
rfemur -29.9253 14.4221 9.4331
rtibia 22.8328
rfoot 16.3045 6.24175
rtoes 23.8269
lfemur 9.00604 -3.81961 -29.2965
ltibia 23.5368
lfoot -12.9788 -13.5385
ltoes 9.21386
281
root 14.0184 17.7535 -14.7927 -6.68259 -24.7476 7.81571
lowerback 5.16399 -1.85555 -11.125
upperback 2.5771 -3.00711 -1.86755
thorax 0.270626 -1.61784 4.40874
lowerneck -11.7288 -10.8621 -10.9769
upperneck 12.078 -15.7744 17.149
head 7.96953 -6.88224 5.55956
rclavicle 1.57288e-014 5.96354e-016
rhumerus -40.0417 -19.2355 -67.832
rradius 25.0344
rwrist 8.79338
rhand -22.2783 30.8183
rfingers 7.12502
rthumb 4.14 0.878752
lclavicle 1.57288e-014 5.96354e-016
lhumerus -27.2903 9.89334 78.1966
lradius 27.5976
lwrist 8.41417
lhand -27.7902 24.7311
lfingers 7.12502
lthumb -1.1833 54.7076
rfemur -30.4654 14.4029 9.45003
rtibia 21.6934
rfoot 18.1905 4.58324
rtoes 25.7654
lfemur 8.78961 -3.63015 -29.4246
ltibia 22.4907
lfoot -13.6921 -12.4287
ltoes 7.82889
282
root 14.1002 17.7618 -14.9438 -6.5181 -25.7527 7.64376
lowerback 5.05973 -1.83871 -10.9024
upperback 2.83482 -2.94314 -1.87984
thorax 0.576119 -1.60909 4.259
lowerneck -12.132 -10.8753 -10.402
upperneck 11.8886 -15.7871 16.9112
head 7.9119 -6.86567 5.36801
rclavicle 6.70153e-014 7.15625e-015
rhumerus -39.6446 -19.5981 -68.1756
rradius 25.4539
rwrist 8.81882
rhand -22.2595 30.763
rfingers 7.12502
rthumb 4.15817 0.823817
lclavicle 6.70153e-014 7.15625e-015
lhumerus -26.3314 8.49469 78.2142
lradius 27.4188
lwrist 8.45557
lhand -26.6712 24.7326
lfingers 7.12502
lthumb -0.102532 54.7123
rfemur -30.863 14.1677 9.74016
rtibia 20.7721
rfoot 18.5661 3.38871
rtoes 22.7711
lfemur 8.61038 -3.33864 -29.3187
ltibia 21.491
lfoot -14.24 -11.5228
ltoes 6.08919
